<svg xmlns="http://www.w3.org/2000/svg" viewBox="0 0 1011.78 85.25"><defs><style>.cls-1{fill:aqua;}.cls-2{fill:#f0f;}</style></defs><g id="Layer_2" data-name="Layer 2"><g id="Layer_1-2" data-name="Layer 1"><path class="cls-1" d="M110.28,1.22h4V84h-4Z"/><path class="cls-1" d="M157.07,79.06a39.77,39.77,0,0,1-15.32-15,41.87,41.87,0,0,1-5.56-21.42,41.86,41.86,0,0,1,5.56-21.41,39.77,39.77,0,0,1,15.32-15A44,44,0,0,1,178.9.75a45.21,45.21,0,0,1,16,2.78,34.44,34.44,0,0,1,12.77,8.22l-2.48,2.6Q194.87,4.42,179,4.41a39.37,39.37,0,0,0-19.75,5,36.87,36.87,0,0,0-14,13.78,38,38,0,0,0-5.09,19.4A38,38,0,0,0,145.3,62a36.87,36.87,0,0,0,14,13.78,39.37,39.37,0,0,0,19.75,5q15.74,0,26.15-10.06l2.48,2.6a35.18,35.18,0,0,1-12.71,8.28,46.58,46.58,0,0,1-37.86-2.6Z"/><path class="cls-1" d="M392.31,1.22V84H389L330.2,8.55V84h-4V1.22h3.31l58.8,75.48V1.22Z"/><path class="cls-1" d="M422.59,1.22h4V84h-4Z"/><path class="cls-1" d="M469.38,79.06a39.7,39.7,0,0,1-15.32-15,41.87,41.87,0,0,1-5.56-21.42,41.86,41.86,0,0,1,5.56-21.41,39.7,39.7,0,0,1,15.32-15A44,44,0,0,1,491.2.75a45.23,45.23,0,0,1,16,2.78A34.44,34.44,0,0,1,520,11.75l-2.48,2.6q-10.29-9.93-26.15-9.94a39.37,39.37,0,0,0-19.75,5,36.87,36.87,0,0,0-14,13.78,38,38,0,0,0-5.09,19.4A38,38,0,0,0,457.61,62a36.87,36.87,0,0,0,14,13.78,39.37,39.37,0,0,0,19.75,5q15.74,0,26.15-10.06l2.48,2.6a35.14,35.14,0,0,1-12.72,8.28,46.55,46.55,0,0,1-37.85-2.6Z"/><path class="cls-1" d="M703.26.75V83.56H700L641.15,8.08V83.56h-4V.75h3.31l58.8,75.47V.75Z"/><path class="cls-1" d="M793.4,42.74h3.79V73.38a36.46,36.46,0,0,1-13,7.93,46.85,46.85,0,0,1-16,2.72,44.61,44.61,0,0,1-22-5.44,40.18,40.18,0,0,1-15.44-15,41.55,41.55,0,0,1-5.61-21.41,41.61,41.61,0,0,1,5.61-21.41,40.08,40.08,0,0,1,15.44-15,44.62,44.62,0,0,1,22-5.45A47.36,47.36,0,0,1,784.53,3a33.92,33.92,0,0,1,12.78,8.17l-2.37,2.72q-10.29-9.94-26.62-9.94a40.2,40.2,0,0,0-20.05,5,36.75,36.75,0,0,0-14,13.78,37.92,37.92,0,0,0-5.08,19.4,37.89,37.89,0,0,0,5.08,19.4,36.75,36.75,0,0,0,14,13.78,40.1,40.1,0,0,0,20.05,5q15.51,0,25.08-8.63Z"/><path class="cls-1" d="M825.11.75h4V83.56h-4Z"/><path class="cls-1" d="M925.54.75V83.56h-3.31L863.44,8.08V83.56h-4V.75h3.32l58.79,75.47V.75Z"/><polygon class="cls-1" points="562.13 79.89 562.13 43.34 607.08 43.34 607.08 39.67 592.71 39.67 562.13 39.67 558.11 39.67 558.11 83.56 614.06 83.56 614.06 79.89 562.13 79.89"/><polygon class="cls-1" points="959.85 79.89 959.85 43.34 1004.8 43.34 1004.8 39.67 1002.22 39.67 959.85 39.67 955.83 39.67 955.83 83.56 1011.78 83.56 1011.78 79.89 959.85 79.89"/><polygon class="cls-1" points="955.83 0.75 955.83 32.45 959.85 32.45 959.85 4.41 1010.13 4.41 1010.13 0.75 955.83 0.75"/><polygon class="cls-1" points="562.13 32.45 562.13 4.41 612.41 4.41 612.41 0.75 558.11 0.75 558.11 32.45 562.13 32.45"/><path class="cls-1" d="M265.13,4.05A37.28,37.28,0,0,1,281.05,9a36.56,36.56,0,0,1,13.72,13.9,39.42,39.42,0,0,1,5,19.7,39.74,39.74,0,0,1-5,19.75,36.43,36.43,0,0,1-13.72,14,37.42,37.42,0,0,1-15.92,4.92v4a41.11,41.11,0,0,0,17.81-5.42,39.59,39.59,0,0,0,15-15.38,44.36,44.36,0,0,0,5.45-21.88A44,44,0,0,0,298,20.74a39.7,39.7,0,0,0-15-15.32A41,41,0,0,0,265.13,0Z"/><path class="cls-1" d="M257.93,81.2A37.34,37.34,0,0,1,242,76.28a36.36,36.36,0,0,1-13.72-14,39.63,39.63,0,0,1-5-19.75,39.31,39.31,0,0,1,5-19.7A36.48,36.48,0,0,1,242,9a37.2,37.2,0,0,1,15.92-4.92V0a41,41,0,0,0-17.81,5.42,39.79,39.79,0,0,0-15,15.32,44,44,0,0,0-5.44,21.83,44.36,44.36,0,0,0,5.44,21.88,39.68,39.68,0,0,0,15,15.38,41.11,41.11,0,0,0,17.81,5.42Z"/><path class="cls-2" d="M17.21,1.31A17.21,17.21,0,1,0,34.42,18.52,17.23,17.23,0,0,0,17.21,1.31Zm0,30.61a13.4,13.4,0,1,1,13.4-13.4A13.41,13.41,0,0,1,17.21,31.92Z"/><path class="cls-2" d="M.05,84H34.42V49.61H.05ZM30.61,53.42V80.17H3.86V53.42Z"/><path class="cls-2" d="M48.34,84H82.72V49.61H48.34ZM78.9,53.42V80.17H52.16V53.42Z"/><path class="cls-2" d="M65.73,1.31H48.34V35.69H82.72V18.3A17,17,0,0,0,65.73,1.31ZM52.16,5.13H65.73A13.19,13.19,0,0,1,78.9,18.3V31.87H52.16Z"/></g></g></svg>